<svg width="102" height="102" viewBox="0 0 102 102" fill="none" xmlns="http://www.w3.org/2000/svg">
    <rect width="102" height="102" rx="10" fill="white"/>
    <rect x="2" y="2" width="98" height="98" rx="49" fill="white"/>
    <path d="M24.6245 33.7207C24.6245 34.0052 24.6802 34.2619 24.7915 34.4907C24.909 34.7196 25.0729 34.9299 25.2832 35.1216C25.4997 35.3071 25.7594 35.4803 26.0625 35.6411C26.3656 35.7957 26.7057 35.9473 27.083 36.0957C27.7943 36.3802 28.4437 36.6616 29.0312 36.9399C29.6188 37.2183 30.1198 37.5244 30.5342 37.8584C30.9548 38.1862 31.2795 38.5573 31.5083 38.9717C31.7371 39.3799 31.8516 39.8592 31.8516 40.4097C31.8516 41.0591 31.7279 41.6281 31.4805 42.1167C31.2331 42.6053 30.896 43.0166 30.4692 43.3506C30.0425 43.6784 29.5415 43.9258 28.9663 44.0928C28.3973 44.2598 27.7912 44.3433 27.1479 44.3433C26.6903 44.3433 26.2419 44.3154 25.8027 44.2598C25.3636 44.2041 24.9399 44.1144 24.5317 43.9907C24.1235 43.867 23.737 43.7062 23.3721 43.5083C23.0072 43.3104 22.6701 43.0661 22.3608 42.7754L22.7969 40.2891L24.1885 40.3447C24.1885 40.8457 24.2225 41.2694 24.2905 41.6157C24.3586 41.9621 24.4544 42.2528 24.5781 42.4878C24.7327 42.63 24.909 42.7507 25.1069 42.8496C25.311 42.9424 25.5244 43.0166 25.7471 43.0723C25.9759 43.1279 26.2078 43.1681 26.4429 43.1929C26.6841 43.2114 26.9191 43.2207 27.1479 43.2207C27.519 43.2207 27.8654 43.165 28.187 43.0537C28.5086 42.9362 28.7869 42.7785 29.022 42.5806C29.2632 42.3826 29.4518 42.1476 29.5879 41.8755C29.724 41.5972 29.792 41.2941 29.792 40.9663C29.792 40.5767 29.7023 40.2334 29.5229 39.9365C29.3436 39.6335 29.09 39.3582 28.7622 39.1108C28.4406 38.8634 28.0509 38.6315 27.5933 38.415C27.1356 38.1986 26.6284 37.979 26.0718 37.7563C25.5522 37.5522 25.0791 37.3327 24.6523 37.0977C24.2256 36.8564 23.8607 36.5874 23.5576 36.2905C23.2607 35.9937 23.0288 35.6597 22.8618 35.2886C22.6948 34.9175 22.6113 34.4938 22.6113 34.0176C22.6113 33.5104 22.7196 33.0404 22.936 32.6074C23.1525 32.1745 23.4772 31.8003 23.9102 31.4849C24.3431 31.1694 24.8781 30.922 25.5151 30.7427C26.1522 30.5633 26.8944 30.4736 27.7417 30.4736C28.1252 30.4736 28.5024 30.4922 28.8735 30.5293C29.2508 30.5664 29.5972 30.6221 29.9126 30.6963C30.2342 30.7705 30.5125 30.8664 30.7476 30.9839C30.9826 31.0952 31.1527 31.2282 31.2578 31.3828C31.2516 31.4385 31.2454 31.5034 31.2393 31.5776C31.2331 31.6519 31.2207 31.7786 31.2021 31.958C31.1836 32.1312 31.1558 32.3786 31.1187 32.7002C31.0815 33.0156 31.029 33.4455 30.9609 33.9897L29.7456 33.9062C29.7456 33.4548 29.7054 33.0806 29.625 32.7837C29.5508 32.4868 29.4209 32.2518 29.2354 32.0786C29.0498 31.8993 28.7993 31.7756 28.4839 31.7075C28.1685 31.6333 27.7695 31.5962 27.2871 31.5962C26.8789 31.5962 26.5109 31.6488 26.1831 31.7539C25.8553 31.8529 25.5739 31.9951 25.3389 32.1807C25.11 32.3662 24.9338 32.592 24.8101 32.8579C24.6864 33.1177 24.6245 33.4053 24.6245 33.7207ZM47.2612 36.2534C47.3045 36.1112 47.3324 35.9751 47.3447 35.8452C47.3633 35.7091 47.4004 35.5793 47.4561 35.4556C47.3695 35.4061 47.2767 35.3721 47.1777 35.3535C47.0788 35.3288 46.9458 35.3164 46.7788 35.3164H46.2686L46.3706 34.4258C46.6118 34.3577 46.9056 34.3114 47.252 34.2866C47.5983 34.2557 47.9941 34.2402 48.4395 34.2402C48.891 34.2402 49.293 34.2557 49.6455 34.2866C50.0042 34.3114 50.2826 34.3577 50.4805 34.4258V35.3164H49.9795C49.6579 35.3164 49.3734 35.3628 49.126 35.4556C48.9033 36.0679 48.6807 36.6833 48.458 37.3018C48.2415 37.9141 48.0282 38.5109 47.8179 39.0923C47.6076 39.6675 47.4066 40.2179 47.2148 40.7437C47.0293 41.2694 46.8592 41.7518 46.7046 42.1909C46.55 42.6239 46.4139 43.0042 46.2964 43.332C46.1789 43.6536 46.0892 43.901 46.0273 44.0742H44.9604C44.7563 44.0742 44.5924 44.0588 44.4688 44.0278C44.3451 43.9969 44.243 43.9474 44.1626 43.8794C44.0822 43.8052 44.0173 43.7155 43.9678 43.6104C43.9245 43.5052 43.8781 43.3784 43.8286 43.23L41.8618 37.4131C41.6948 37.9079 41.5093 38.4491 41.3052 39.0366C41.1073 39.618 40.9001 40.2056 40.6836 40.7993C40.4733 41.3931 40.2661 41.9714 40.062 42.5342C39.8579 43.097 39.6693 43.6104 39.4961 44.0742H38.4292C38.0643 44.0742 37.8138 44.0371 37.6777 43.9629C37.5417 43.8825 37.4582 43.7866 37.4272 43.6753L34.7739 36.2534C34.7244 36.1112 34.6595 35.9751 34.5791 35.8452C34.5049 35.7091 34.4245 35.5793 34.3379 35.4556C34.0967 35.3628 33.8153 35.3164 33.4937 35.3164H32.9927L32.8442 34.4258C33.0483 34.3577 33.3267 34.3114 33.6792 34.2866C34.0317 34.2557 34.4492 34.2402 34.9316 34.2402C35.4945 34.2402 36.0078 34.2557 36.4717 34.2866C36.9417 34.3114 37.3283 34.3577 37.6313 34.4258L37.7891 35.3164H37.2788C36.951 35.3164 36.7098 35.3628 36.5552 35.4556L38.9209 42.6455L39.9414 39.4634C40.0775 39.0366 40.2166 38.5975 40.3589 38.146C40.5073 37.6945 40.6496 37.2585 40.7856 36.8379C40.9217 36.4111 41.0485 36.0153 41.166 35.6504C41.2897 35.2793 41.3949 34.9577 41.4814 34.6855H41.9917C42.2515 34.6855 42.4587 34.7041 42.6133 34.7412C42.7679 34.7721 42.87 34.8618 42.9194 35.0103L45.4429 42.7661L47.2612 36.2534ZM58.4033 38.3965C58.4157 38.3717 58.4219 38.347 58.4219 38.3223C58.4219 38.2975 58.4219 38.2697 58.4219 38.2388C58.4219 37.8306 58.3786 37.444 58.292 37.0791C58.2116 36.708 58.0817 36.3833 57.9023 36.105C57.723 35.8205 57.488 35.5978 57.1973 35.437C56.9128 35.27 56.5633 35.1865 56.1489 35.1865C55.3263 35.1865 54.7017 35.4587 54.2749 36.0029C53.8543 36.5472 53.6162 37.3451 53.5605 38.3965H58.4033ZM60.2124 42.4507C59.8599 43.0692 59.3743 43.5207 58.7559 43.8052C58.1374 44.0835 57.3859 44.2227 56.5015 44.2227C55.7531 44.2227 55.0728 44.1113 54.4604 43.8887C53.8543 43.666 53.3348 43.3413 52.9019 42.9146C52.4751 42.4816 52.1442 41.9528 51.9092 41.3281C51.6742 40.7035 51.5566 39.9891 51.5566 39.1851C51.5566 38.4058 51.6711 37.7069 51.8999 37.0884C52.1287 36.4637 52.4565 35.9349 52.8833 35.502C53.3101 35.069 53.8234 34.7381 54.4233 34.5093C55.0295 34.2743 55.7098 34.1567 56.4644 34.1567C57.021 34.1567 57.5405 34.2433 58.0229 34.4165C58.5054 34.5835 58.9229 34.8278 59.2754 35.1494C59.6341 35.4648 59.9124 35.8545 60.1104 36.3184C60.3145 36.7822 60.4165 37.3049 60.4165 37.8862C60.4165 38.2388 60.3856 38.5202 60.3237 38.7305C60.2681 38.9408 60.1815 39.1016 60.064 39.2129C59.9526 39.3242 59.8073 39.3984 59.6279 39.4355C59.4548 39.4665 59.2476 39.4819 59.0063 39.4819H53.5698C53.6379 40.6756 53.9533 41.5724 54.5161 42.1724C55.0851 42.7661 55.849 43.063 56.8076 43.063C57.3086 43.063 57.7756 42.9857 58.2085 42.8311C58.6414 42.6764 59.0435 42.4321 59.4146 42.0981L60.2124 42.4507ZM69.2764 38.3965C69.2887 38.3717 69.2949 38.347 69.2949 38.3223C69.2949 38.2975 69.2949 38.2697 69.2949 38.2388C69.2949 37.8306 69.2516 37.444 69.165 37.0791C69.0846 36.708 68.9548 36.3833 68.7754 36.105C68.596 35.8205 68.361 35.5978 68.0703 35.437C67.7858 35.27 67.4364 35.1865 67.022 35.1865C66.1994 35.1865 65.5747 35.4587 65.1479 36.0029C64.7274 36.5472 64.4893 37.3451 64.4336 38.3965H69.2764ZM71.0854 42.4507C70.7329 43.0692 70.2474 43.5207 69.6289 43.8052C69.0104 44.0835 68.259 44.2227 67.3745 44.2227C66.6261 44.2227 65.9458 44.1113 65.3335 43.8887C64.7274 43.666 64.2078 43.3413 63.7749 42.9146C63.3481 42.4816 63.0173 41.9528 62.7822 41.3281C62.5472 40.7035 62.4297 39.9891 62.4297 39.1851C62.4297 38.4058 62.5441 37.7069 62.7729 37.0884C63.0018 36.4637 63.3296 35.9349 63.7563 35.502C64.1831 35.069 64.6965 34.7381 65.2964 34.5093C65.9025 34.2743 66.5828 34.1567 67.3374 34.1567C67.894 34.1567 68.4136 34.2433 68.896 34.4165C69.3784 34.5835 69.7959 34.8278 70.1484 35.1494C70.5072 35.4648 70.7855 35.8545 70.9834 36.3184C71.1875 36.7822 71.2896 37.3049 71.2896 37.8862C71.2896 38.2388 71.2586 38.5202 71.1968 38.7305C71.1411 38.9408 71.0545 39.1016 70.937 39.2129C70.8257 39.3242 70.6803 39.3984 70.501 39.4355C70.3278 39.4665 70.1206 39.4819 69.8794 39.4819H64.4429C64.5109 40.6756 64.8263 41.5724 65.3892 42.1724C65.9582 42.7661 66.722 43.063 67.6807 43.063C68.1816 43.063 68.6486 42.9857 69.0815 42.8311C69.5145 42.6764 69.9165 42.4321 70.2876 42.0981L71.0854 42.4507ZM74.8521 32.7095C74.8644 32.5796 74.8923 32.4404 74.9355 32.292C74.985 32.1374 75.0345 31.9982 75.084 31.8745L75.251 31.4292H76.4756V34.4258H79.4629V34.9082C79.4629 35.0505 79.4505 35.1649 79.4258 35.2515C79.401 35.3319 79.3608 35.3937 79.3052 35.437C79.2557 35.4803 79.1877 35.5081 79.1011 35.5205C79.0207 35.5329 78.9217 35.5391 78.8042 35.5391H76.4756V41.0405C76.4756 41.4116 76.5065 41.7271 76.5684 41.9868C76.6364 42.2466 76.7261 42.4569 76.8374 42.6177C76.9549 42.7785 77.0972 42.896 77.2642 42.9702C77.4312 43.0382 77.6167 43.0723 77.8208 43.0723C77.8888 43.0723 77.9661 43.0661 78.0527 43.0537C78.1455 43.0352 78.2321 43.0135 78.3125 42.9888C78.4053 42.964 78.498 42.9362 78.5908 42.9053C78.6156 42.7012 78.6403 42.4971 78.665 42.293C78.6898 42.1136 78.7114 41.9219 78.73 41.7178C78.7547 41.5137 78.7795 41.3188 78.8042 41.1333L80.0195 41.0405L80.1123 43.5547C79.7288 43.7464 79.2897 43.8856 78.7949 43.9722C78.3063 44.0588 77.7899 44.1021 77.2456 44.1021C76.3364 44.1021 75.6499 43.867 75.186 43.397C74.7284 42.9207 74.4995 42.1971 74.4995 41.2261V35.5391H72.6162V35.0381C72.6162 34.8773 72.6502 34.7721 72.7183 34.7227C72.7925 34.6732 72.9038 34.6392 73.0522 34.6206L74.6016 34.4258L74.8521 32.7095ZM19.9395 70C19.4447 70 18.953 70.0124 18.4644 70.0371C17.9757 70.0618 17.481 70.0928 16.98 70.1299V68.8218H17.8149C17.9943 68.8218 18.1644 68.8187 18.3252 68.8125C18.486 68.8063 18.6344 68.7816 18.7705 68.7383C18.8633 68.46 18.9097 68.0858 18.9097 67.6157V59.3774C18.9097 59.0991 18.8973 58.8548 18.8726 58.6445C18.8478 58.4281 18.8138 58.2301 18.7705 58.0508C18.6344 58.0013 18.486 57.9735 18.3252 57.9673C18.1644 57.9549 17.9943 57.9487 17.8149 57.9487H16.8594V56.8633C17.7005 56.7581 18.6561 56.6746 19.7261 56.6128C20.7961 56.5509 22.0145 56.52 23.3813 56.52C24.006 56.52 24.606 56.5664 25.1812 56.6592C25.7563 56.7458 26.2913 56.8942 26.7861 57.1045C27.2809 57.3148 27.7293 57.5931 28.1313 57.9395C28.5334 58.2858 28.8766 58.7157 29.1611 59.229C29.4518 59.7362 29.6745 60.3361 29.8291 61.0288C29.9837 61.7153 30.061 62.5101 30.061 63.4131C30.061 64.4645 29.9435 65.3582 29.7085 66.0942C29.4735 66.8241 29.1395 67.4333 28.7065 67.9219C28.2798 68.4105 27.7603 68.7939 27.1479 69.0723C26.5418 69.3506 25.8615 69.5578 25.1069 69.6938C24.3586 69.8299 23.5483 69.9165 22.6763 69.9536C21.8042 69.9845 20.8919 70 19.9395 70ZM20.9136 68.8311C21.0125 68.8434 21.1084 68.8496 21.2012 68.8496C21.2939 68.8496 21.3867 68.8496 21.4795 68.8496C22.1846 68.8496 22.8309 68.8187 23.4185 68.7568C24.006 68.6888 24.5348 68.5775 25.0049 68.4229C25.4749 68.262 25.8862 68.0487 26.2388 67.7827C26.5975 67.5106 26.8944 67.1704 27.1294 66.7622C27.3644 66.354 27.5407 65.8716 27.6582 65.3149C27.7757 64.7521 27.8345 64.0996 27.8345 63.3574C27.8345 62.3122 27.7386 61.437 27.5469 60.7319C27.3613 60.0207 27.0737 59.4486 26.6841 59.0156C26.2944 58.5827 25.8027 58.2734 25.209 58.0879C24.6214 57.9023 23.9256 57.8096 23.1216 57.8096C22.6886 57.8096 22.2743 57.8158 21.8784 57.8281C21.4826 57.8405 21.161 57.8467 20.9136 57.8467V68.8311ZM35.4419 62.6616C35.6707 62.2967 35.8965 61.9596 36.1191 61.6504C36.3418 61.3411 36.5799 61.0752 36.8335 60.8525C37.0933 60.6299 37.3778 60.4567 37.687 60.333C37.9963 60.2093 38.3519 60.1475 38.7539 60.1475C39.1374 60.1475 39.4281 60.1784 39.626 60.2402C39.8239 60.3021 39.9754 60.3639 40.0806 60.4258L39.8486 62.9863H39.0137L38.791 61.6318C38.624 61.6133 38.4941 61.5978 38.4014 61.5854C38.3086 61.5731 38.2282 61.5669 38.1602 61.5669C37.8695 61.5669 37.5664 61.6566 37.251 61.8359C36.9417 62.0091 36.6572 62.2441 36.3975 62.541C36.1377 62.8317 35.9243 63.1688 35.7573 63.5522C35.5903 63.9295 35.5068 64.3223 35.5068 64.7305V67.8569C35.5068 68.1167 35.513 68.3332 35.5254 68.5063C35.5378 68.6733 35.578 68.8125 35.646 68.9238C35.7202 69.0352 35.8315 69.1217 35.98 69.1836C36.1346 69.2454 36.3511 69.298 36.6294 69.3413L36.7129 70.1206C36.2676 70.0835 35.8625 70.0526 35.4976 70.0278C35.1326 70.0093 34.7739 70 34.4214 70C34.0874 70 33.7503 70.0093 33.4102 70.0278C33.0762 70.0464 32.7205 70.0773 32.3433 70.1206L32.3804 69.3413C32.6711 69.3042 32.8937 69.2609 33.0483 69.2114C33.2091 69.1619 33.3236 69.0908 33.3916 68.998C33.4658 68.9053 33.5091 68.7878 33.5215 68.6455C33.5339 68.5033 33.54 68.3208 33.54 68.0981V62.0957C33.54 61.9844 33.5339 61.8761 33.5215 61.771C33.5153 61.6597 33.4967 61.5545 33.4658 61.4556C33.3792 61.4123 33.2865 61.3783 33.1875 61.3535C33.0885 61.3288 32.9679 61.3164 32.8257 61.3164H31.7773V60.4258C31.8516 60.4072 31.9629 60.3887 32.1113 60.3701C32.2598 60.3454 32.4299 60.3237 32.6216 60.3052C32.8195 60.2866 33.0298 60.2712 33.2524 60.2588C33.4813 60.2464 33.7132 60.2402 33.9482 60.2402C34.2451 60.2402 34.5234 60.2557 34.7832 60.2866C35.0492 60.3114 35.2687 60.3577 35.4419 60.4258V62.6616ZM48.2632 64.3965C48.2756 64.3717 48.2817 64.347 48.2817 64.3223C48.2817 64.2975 48.2817 64.2697 48.2817 64.2388C48.2817 63.8306 48.2384 63.444 48.1519 63.0791C48.0715 62.708 47.9416 62.3833 47.7622 62.105C47.5828 61.8205 47.3478 61.5978 47.0571 61.437C46.7726 61.27 46.4232 61.1865 46.0088 61.1865C45.1862 61.1865 44.5615 61.4587 44.1348 62.0029C43.7142 62.5472 43.4761 63.3451 43.4204 64.3965H48.2632ZM50.0723 68.4507C49.7197 69.0692 49.2342 69.5207 48.6157 69.8052C47.9972 70.0835 47.2458 70.2227 46.3613 70.2227C45.613 70.2227 44.9326 70.1113 44.3203 69.8887C43.7142 69.666 43.1947 69.3413 42.7617 68.9146C42.335 68.4816 42.0041 67.9528 41.769 67.3281C41.534 66.7035 41.4165 65.9891 41.4165 65.1851C41.4165 64.4058 41.5309 63.7069 41.7598 63.0884C41.9886 62.4637 42.3164 61.9349 42.7432 61.502C43.1699 61.069 43.6833 60.7381 44.2832 60.5093C44.8893 60.2743 45.5697 60.1567 46.3242 60.1567C46.8809 60.1567 47.4004 60.2433 47.8828 60.4165C48.3652 60.5835 48.7827 60.8278 49.1353 61.1494C49.494 61.4648 49.7723 61.8545 49.9702 62.3184C50.1743 62.7822 50.2764 63.3049 50.2764 63.8862C50.2764 64.2388 50.2454 64.5202 50.1836 64.7305C50.1279 64.9408 50.0413 65.1016 49.9238 65.2129C49.8125 65.3242 49.6672 65.3984 49.4878 65.4355C49.3146 65.4665 49.1074 65.4819 48.8662 65.4819H43.4297C43.4977 66.6756 43.8132 67.5724 44.376 68.1724C44.945 68.7661 45.7088 69.063 46.6675 69.063C47.1685 69.063 47.6354 68.9857 48.0684 68.8311C48.5013 68.6764 48.9033 68.4321 49.2744 68.0981L50.0723 68.4507ZM58.2363 68.0981C58.2734 67.7642 58.3075 67.3869 58.3384 66.9663C58.3693 66.5396 58.3848 66.0386 58.3848 65.4634H56.9189C56.0345 65.4634 55.3573 65.6273 54.8872 65.9551C54.4172 66.2829 54.1821 66.7653 54.1821 67.4023C54.1821 67.959 54.3368 68.3765 54.646 68.6548C54.9552 68.9269 55.3696 69.063 55.8892 69.063C56.2788 69.063 56.6746 68.9733 57.0767 68.7939C57.4787 68.6084 57.8652 68.3765 58.2363 68.0981ZM61.9937 69.8237C61.6782 69.9351 61.3226 70.0124 60.9268 70.0557C60.5309 70.099 60.0918 70.1206 59.6094 70.1206C59.3558 70.1206 59.1393 70.1144 58.96 70.1021C58.7868 70.0897 58.6445 70.0526 58.5332 69.9907C58.4281 69.9227 58.3507 69.8206 58.3013 69.6846C58.2518 69.5485 58.2271 69.3599 58.2271 69.1187L58.2085 68.9331C58.0229 69.1001 57.825 69.2609 57.6147 69.4155C57.4045 69.5701 57.1756 69.7093 56.9282 69.833C56.6808 69.9505 56.4149 70.0433 56.1304 70.1113C55.8459 70.1855 55.5366 70.2227 55.2026 70.2227C54.7635 70.2227 54.3584 70.1639 53.9873 70.0464C53.6162 69.9351 53.2977 69.765 53.0317 69.5361C52.7658 69.3073 52.5586 69.0228 52.4102 68.6826C52.2617 68.3424 52.1875 67.9435 52.1875 67.4858C52.1875 66.4591 52.5864 65.6891 53.3843 65.1758C54.1821 64.6624 55.3944 64.4058 57.021 64.4058H58.3848V63.7749C58.3848 63.311 58.3538 62.9152 58.292 62.5874C58.2301 62.2534 58.1281 61.9813 57.9858 61.771C57.8498 61.5545 57.6673 61.3968 57.4385 61.2979C57.2096 61.1927 56.9313 61.1401 56.6035 61.1401C56.2324 61.1401 55.8984 61.1927 55.6016 61.2979C55.3109 61.403 55.0511 61.5422 54.8223 61.7153C54.5934 61.8823 54.3893 62.0771 54.21 62.2998C54.0368 62.5225 53.8791 62.7544 53.7368 62.9956L52.4473 62.1792C52.4906 61.9256 52.6143 61.6782 52.8184 61.437C53.0225 61.1958 53.2977 60.9793 53.644 60.7876C53.9904 60.5959 54.4017 60.4443 54.8779 60.333C55.3604 60.2155 55.8984 60.1567 56.4922 60.1567C57.8158 60.1567 58.7899 60.4598 59.4146 61.0659C60.0392 61.6659 60.3516 62.5348 60.3516 63.6729V67.5044C60.3516 67.8569 60.367 68.16 60.3979 68.4136C60.4289 68.661 60.466 68.8774 60.5093 69.063H61.9937V69.8237ZM77.3105 63.877C77.3105 63.3698 77.2858 62.9523 77.2363 62.6245C77.1868 62.2905 77.1064 62.0277 76.9951 61.8359C76.8838 61.6442 76.7354 61.5112 76.5498 61.437C76.3643 61.3566 76.1323 61.3164 75.854 61.3164C75.5262 61.3164 75.217 61.3752 74.9263 61.4927C74.6418 61.604 74.382 61.7463 74.147 61.9194C73.9181 62.0926 73.7202 62.2843 73.5532 62.4946C73.3924 62.6987 73.2718 62.8936 73.1914 63.0791V67.8013C73.1914 68.0734 73.1976 68.2992 73.21 68.4785C73.2223 68.6517 73.2656 68.7939 73.3398 68.9053C73.4202 69.0166 73.5409 69.1063 73.7017 69.1743C73.8687 69.2362 74.1006 69.2887 74.3975 69.332L74.481 70.1206C74.1099 70.0835 73.7233 70.0526 73.3213 70.0278C72.9193 70.0093 72.5142 70 72.106 70C71.7287 70 71.3638 70.0093 71.0112 70.0278C70.6649 70.0464 70.334 70.0773 70.0186 70.1206L70.0557 69.332C70.3402 69.2949 70.5597 69.2547 70.7144 69.2114C70.869 69.1619 70.9834 69.0939 71.0576 69.0073C71.1318 68.9207 71.1751 68.8094 71.1875 68.6733C71.1999 68.5373 71.2061 68.3641 71.2061 68.1538V63.877C71.2061 63.3636 71.1813 62.943 71.1318 62.6152C71.0885 62.2812 71.0081 62.0184 70.8906 61.8267C70.7793 61.6349 70.6278 61.502 70.436 61.4277C70.2505 61.3535 70.0186 61.3164 69.7402 61.3164C69.4495 61.3164 69.1589 61.3721 68.8682 61.4834C68.5837 61.5947 68.3208 61.737 68.0796 61.9102C67.8384 62.0833 67.6312 62.2751 67.458 62.4854C67.2848 62.6895 67.1642 62.8874 67.0962 63.0791V67.8105C67.0962 68.0827 67.1024 68.3053 67.1147 68.4785C67.1271 68.6517 67.1673 68.7939 67.2354 68.9053C67.3096 69.0166 67.4209 69.1063 67.5693 69.1743C67.7178 69.2362 67.9312 69.2887 68.2095 69.332L68.2837 70.1206C67.9312 70.0835 67.557 70.0526 67.1611 70.0278C66.7715 70.0093 66.3726 70 65.9644 70C65.5933 70 65.2345 70.0093 64.8882 70.0278C64.5418 70.0464 64.2202 70.0773 63.9233 70.1206L63.9512 69.332C64.2419 69.2949 64.4645 69.2516 64.6191 69.2021C64.7799 69.1465 64.8944 69.0723 64.9624 68.9795C65.0366 68.8805 65.0799 68.7568 65.0923 68.6084C65.1047 68.46 65.1108 68.2775 65.1108 68.061V62.1978C65.1108 62.0741 65.1047 61.9473 65.0923 61.8174C65.0861 61.6875 65.0706 61.5669 65.0459 61.4556C64.8294 61.3628 64.5635 61.3164 64.248 61.3164H63.3481V60.4258C63.4224 60.4072 63.5337 60.3887 63.6821 60.3701C63.8368 60.3454 64.013 60.3237 64.2109 60.3052C64.4089 60.2866 64.6222 60.2712 64.8511 60.2588C65.0799 60.2464 65.3057 60.2402 65.5283 60.2402C65.8252 60.2402 66.1097 60.2557 66.3818 60.2866C66.654 60.3114 66.8766 60.3577 67.0498 60.4258V61.604C67.5941 61.1216 68.1507 60.7598 68.7197 60.5186C69.2949 60.2712 69.932 60.1475 70.6309 60.1475C71.8864 60.1475 72.6873 60.6948 73.0337 61.7896C73.1821 61.6226 73.3646 61.4432 73.5811 61.2515C73.7975 61.0535 74.048 60.8742 74.3325 60.7134C74.6232 60.5526 74.951 60.4196 75.3159 60.3145C75.6808 60.2031 76.0921 60.1475 76.5498 60.1475C77.5023 60.1475 78.2012 60.3825 78.6465 60.8525C79.0918 61.3164 79.3145 62.0524 79.3145 63.0605V67.5044C79.3145 67.8569 79.3299 68.16 79.3608 68.4136C79.3918 68.661 79.4289 68.8774 79.4722 69.063H80.8081L80.9009 69.8887C80.5793 69.9691 80.2113 70.0278 79.7969 70.0649C79.3887 70.1021 78.9341 70.1206 78.4331 70.1206C78.297 70.1206 78.1579 70.1082 78.0156 70.0835C77.8796 70.0649 77.7559 70.0278 77.6445 69.9722C77.5332 69.9103 77.4404 69.8299 77.3662 69.731C77.2982 69.6258 77.2642 69.4897 77.2642 69.3228C77.2642 69.0197 77.2734 68.7197 77.292 68.4229C77.3167 68.126 77.3291 67.7827 77.3291 67.3931L77.3105 63.877ZM83.7026 66.9849C83.7336 67.356 83.7614 67.6838 83.7861 67.9683C83.8109 68.2466 83.8387 68.5156 83.8696 68.7754C84.1479 68.9176 84.4665 69.0228 84.8252 69.0908C85.1901 69.1589 85.6416 69.1929 86.1797 69.1929C86.5137 69.1929 86.8013 69.1558 87.0425 69.0815C87.2837 69.0011 87.4816 68.8929 87.6362 68.7568C87.7909 68.6208 87.9053 68.4661 87.9795 68.293C88.0537 68.1198 88.0908 67.9342 88.0908 67.7363C88.0908 67.5446 88.0475 67.3714 87.9609 67.2168C87.8743 67.0622 87.7507 66.9199 87.5898 66.79C87.4352 66.6602 87.2466 66.5426 87.0239 66.4375C86.8013 66.3262 86.5539 66.2179 86.2817 66.1128L85.4839 65.8066C84.9891 65.6149 84.5562 65.4325 84.1851 65.2593C83.814 65.0861 83.5047 64.8944 83.2573 64.6841C83.0099 64.4676 82.8244 64.2202 82.7007 63.9419C82.577 63.6636 82.5151 63.3234 82.5151 62.9214C82.5151 62.5008 82.6048 62.1204 82.7842 61.7803C82.9635 61.4339 83.2233 61.1401 83.5635 60.8989C83.9036 60.6577 84.3211 60.4722 84.8159 60.3423C85.3169 60.2124 85.8828 60.1475 86.5137 60.1475C87.1693 60.1475 87.7383 60.2062 88.2207 60.3237C88.7093 60.4351 89.0866 60.5773 89.3525 60.7505C89.3525 60.8247 89.3402 60.9422 89.3154 61.103C89.2907 61.2576 89.2567 61.4401 89.2134 61.6504C89.1763 61.8545 89.133 62.0771 89.0835 62.3184C89.0402 62.5596 88.9969 62.8008 88.9536 63.042L88.0259 62.8843C88.0135 62.606 88.0011 62.3524 87.9888 62.1235C87.9764 61.8947 87.964 61.703 87.9517 61.5483C87.6919 61.4061 87.4043 61.3164 87.0889 61.2793C86.7734 61.2422 86.4085 61.2236 85.9941 61.2236C85.3942 61.2236 84.9551 61.3381 84.6768 61.5669C84.3984 61.7957 84.2593 62.1081 84.2593 62.5039C84.2593 62.7389 84.3088 62.943 84.4077 63.1162C84.5067 63.2894 84.6396 63.4409 84.8066 63.5708C84.9798 63.7007 85.1808 63.8182 85.4097 63.9233C85.6447 64.0223 85.8952 64.1182 86.1611 64.2109L87.1074 64.5449C87.596 64.7181 88.0197 64.8975 88.3784 65.083C88.7371 65.2624 89.034 65.4603 89.269 65.6768C89.5041 65.8932 89.6772 66.1313 89.7886 66.3911C89.9061 66.6509 89.9648 66.9385 89.9648 67.2539C89.9648 67.7549 89.8659 68.1909 89.668 68.562C89.4701 68.9331 89.1948 69.2424 88.8423 69.4897C88.4897 69.731 88.0692 69.9134 87.5806 70.0371C87.0981 70.1608 86.5724 70.2227 86.0034 70.2227C85.6323 70.2227 85.2581 70.1948 84.8809 70.1392C84.5098 70.0835 84.1572 70.0124 83.8232 69.9258C83.4954 69.833 83.1955 69.731 82.9233 69.6196C82.6574 69.5021 82.444 69.3877 82.2832 69.2764L82.7378 66.8643L83.7026 66.9849Z" fill="black"/>
</svg>
